<svg xmlns="http://www.w3.org/2000/svg" width="720" height="220" viewBox="0 0 720 220" fill="none">
  <defs>
    <linearGradient id="g" x1="0" y1="0" x2="1" y2="0">
      <stop offset="0" stop-color="#00d4aa" stop-opacity="0.18"/>
      <stop offset="1" stop-color="#00d4aa" stop-opacity="0.02"/>
    </linearGradient>
  </defs>
  <rect width="720" height="220" fill="url(#g)"/>
  <g stroke="#00d4aa" stroke-opacity="0.16" stroke-width="1">
    <path d="M50 40H680"/>
    <path d="M50 80H680"/>
    <path d="M50 120H680"/>
    <path d="M50 160H680"/>
    <path d="M120 20V200"/>
    <path d="M230 20V200"/>
    <path d="M340 20V200"/>
    <path d="M450 20V200"/>
    <path d="M560 20V200"/>
  </g>
  <g stroke="#00d4aa" stroke-opacity="0.24" stroke-width="1.5">
    <path d="M120 40L230 80L340 40L450 120L560 80"/>
    <path d="M230 160L340 120L450 160L560 120"/>
  </g>
  <g fill="#00d4aa" fill-opacity="0.26">
    <circle cx="230" cy="80" r="3"/>
    <circle cx="340" cy="40" r="3"/>
    <circle cx="450" cy="120" r="3"/>
    <circle cx="560" cy="80" r="3"/>
  </g>
</svg>
