<svg xmlns="http://www.w3.org/2000/svg" width="1400" height="420" viewBox="0 0 1400 420" role="img" aria-label="vScanner findings preview">
  <rect width="1400" height="420" fill="#0b1324" rx="18" />
  <rect x="30" y="30" width="1340" height="360" fill="#111827" stroke="#334155" rx="12" />
  <text x="70" y="82" fill="#e2e8f0" font-size="28" font-family="-apple-system, BlinkMacSystemFont, Segoe UI, sans-serif">Findings Review</text>
  <rect x="70" y="110" width="1220" height="34" fill="#1f2937" rx="8" />
  <rect x="70" y="156" width="1220" height="28" fill="#1e293b" rx="6" />
  <rect x="70" y="194" width="1220" height="28" fill="#1e293b" rx="6" />
  <rect x="70" y="232" width="1220" height="28" fill="#1e293b" rx="6" />
  <rect x="70" y="270" width="1220" height="28" fill="#1e293b" rx="6" />
  <rect x="70" y="308" width="1220" height="28" fill="#1e293b" rx="6" />
  <rect x="88" y="164" width="10" height="12" fill="#ef4444" rx="2" />
  <rect x="88" y="202" width="10" height="12" fill="#f97316" rx="2" />
  <rect x="88" y="240" width="10" height="12" fill="#eab308" rx="2" />
  <rect x="88" y="278" width="10" height="12" fill="#22c55e" rx="2" />
</svg>
